HIERARCHY
ROOT Hips
{
	OFFSET 0.00000 0.00000 0.00000
	CHANNELS 6 Xposition Yposition Zposition Yrotation Zrotation Xrotation 
	JOINT Lumbar
	{
		OFFSET 0 0 0
		CHANNELS 3 Zrotation Xrotation Yrotation
		JOINT Neck
		{
			OFFSET 0.00 0.2701 0.00
			CHANNELS 3 Zrotation Xrotation Yrotation
			End Site
			{
				OFFSET 0.00 0.1379 0.00
			}
		}
		JOINT RightShoulder
		{
			OFFSET 0.0119 0.2289 0.1181
			CHANNELS 3 Zrotation Xrotation Yrotation
			JOINT RightElbow
			{
				OFFSET 0.00 -0.1475 0.00
				CHANNELS 2 Zrotation Yrotation
				JOINT RightWrist
				{
					OFFSET 0.00 -0.1605 0.00
					CHANNELS 2 Zrotation Xrotation
					End Site
					{
						OFFSET 0.0040 -0.1068 0.0006
					}
				}
			}
		}
		JOINT LeftShoulder
		{
			OFFSET 0.0119 0.2289 -0.1181
			CHANNELS 3 Zrotation Xrotation Yrotation
			JOINT LeftElbow
			{
				OFFSET 0.00 -0.1475 0.00
				CHANNELS 2 Zrotation Yrotation
				JOINT LeftWrist
				{
					OFFSET 0.00 -0.1605 0.00
					CHANNELS 2 Zrotation Xrotation
					End Site
					{
						OFFSET 0.0040 -0.1068 -0.0006
					}
				}
			}
		}
	}
	JOINT RightHip
	{
		OFFSET 0.0316 -0.0424 0.0458
		CHANNELS 3 Zrotation Xrotation Yrotation
		JOINT RightKnee
		{
			OFFSET 0.00 -0.2438 0.00
			CHANNELS 1 Zrotation
			JOINT RightAnkle
			{
				OFFSET 0.00 -0.2449 0.00
				CHANNELS 3 Zrotation Xrotation Yrotation
				End Site
				{
					OFFSET 0.1237 -0.0542 0.0051
				}
			}
		}
	}
	JOINT LeftHip
	{
		OFFSET 0.0316 -0.0424 -0.0458
		CHANNELS 3 Zrotation Xrotation Yrotation
		JOINT LeftKnee
		{
			OFFSET 0.00 -0.2438 0.00
			CHANNELS 1 Zrotation
			JOINT LeftAnkle
			{
				OFFSET 0.00 -0.2449 0.00
				CHANNELS 3 Zrotation Xrotation Yrotation
				End Site
				{
					OFFSET 0.1237 -0.0542 -0.0051
				}
			}
		}
	}
}
MOTION
Frames: 14
Frame Time: 0.02
0.00598 -0.00105 -0.00383 -168.00369 -33.30739 -1.44459 41.60217 2.16846 -7.02661 7.7017 0.52322 -0.23851 6.19726 -13.54678 5.32355 32.95521 83.92721 1.06938 -0.82069 28.17805 8.68377 -20.81714 49.54125 -84.15853 1.38146 0.33746 36.75175 0.35421 -2.43958 -19.68117 -6.34071 -3.46729 -2.45158 46.64127 3.51828 1.91091 -35.88065 -6.97772 5.12177 3.35694
0.0051 -0.00121 -0.00187 -168.03619 -33.50628 -1.52803 41.93287 2.18953 -7.16431 7.24669 0.6517 -0.23958 4.31063 -13.53542 3.83606 32.13651 84.0843 1.11749 -0.75421 24.87755 9.00657 -20.22267 49.22012 -85.01465 1.78911 0.18949 36.82699 0.22617 -2.45126 -19.66002 -6.32949 -3.46375 -2.44612 46.26914 3.80714 2.00585 -35.1955 -6.92478 4.96081 3.26596
0.00423 -0.00137 9e-05 -168.06864 -33.70522 -1.61112 42.26337 2.21037 -7.30204 6.79198 0.77969 -0.24065 2.42716 -13.52293 2.34899 31.3216 84.251 1.16849 -0.6863 21.58233 9.32896 -19.62904 48.89924 -85.87246 2.19837 0.04179 36.90254 0.09805 -2.46338 -19.63873 -6.31831 -3.46022 -2.44067 45.89829 4.09471 2.10119 -34.51167 -6.87199 4.80027 3.17524
0.00335 -0.00152 0.00204 -168.10103 -33.90362 -1.69429 42.5932 2.23135 -7.43941 6.33818 0.90776 -0.24171 0.54591 -13.51137 0.86515 30.50567 84.40992 1.21714 -0.61966 18.29122 9.65094 -19.03643 48.57893 -86.72649 2.6052 -0.10572 36.97764 -0.02968 -2.47512 -19.6176 -6.30713 -3.4567 -2.43523 45.52733 4.3826 2.19597 -33.82848 -6.81921 4.63979 3.08454
0.00247 -0.00168 0.00399 -168.13348 -34.10168 -1.77786 42.92288 2.25263 -7.57652 5.88452 1.03635 -0.24278 -1.3375 -13.5015 -0.61687 29.68539 84.55361 1.26123 -0.55534 14.99662 9.97291 -18.44282 48.25874 -87.5776 3.00944 -0.25354 37.05221 -0.15713 -2.48622 -19.5967 -6.29592 -3.45317 -2.42978 45.15501 4.67195 2.29004 -33.14436 -6.76629 4.47893 2.99361
0.0016 -0.00184 0.00595 -168.16594 -34.30241 -1.85995 43.25504 2.27255 -7.71555 5.42768 1.16307 -0.24385 -3.22097 -13.48359 -2.11402 28.88171 84.76754 1.32642 -0.48007 11.70028 10.29602 -17.84891 47.93649 -88.44967 3.42926 -0.40101 37.12979 -0.28662 -2.50048 -19.5746 -6.28482 -3.44964 -2.42434 44.78726 4.95578 2.38802 -32.46121 -6.71376 4.31909 2.90331
0.00072 -0.002 0.0079 -168.19828 -34.49767 -1.94487 43.58198 2.29514 -7.85068 4.97763 1.29339 -0.24492 -5.1022 -13.48149 -3.58093 28.04587 84.84497 1.35054 -0.42613 8.4113 10.61705 -17.25764 47.6185 -89.27753 3.81705 -0.54875 37.2013 -0.41193 -2.50843 -19.55491 -6.2735 -3.44612 -2.41888 44.41078 5.25032 2.47815 -31.77672 -6.66051 4.15735 2.81184
-0.00016 -0.00215 0.00986 -168.23084 -34.69777 -2.02731 43.91346 2.31535 -7.98918 4.52155 1.42046 -0.24598 -6.98557 -13.46553 -5.07235 27.23905 85.039 1.4099 -0.35396 5.11512 10.93894 -16.66142 47.29703 -90.14812 4.23475 -0.69673 37.27824 -0.541 -2.52207 -19.53304 -6.26239 -3.44256 -2.41344 44.04226 5.53511 2.57527 -31.09369 -6.60792 3.99738 2.72145
-0.00103 -0.0023 0.01183 -168.26327 -34.90478 -2.10622 44.25187 2.33233 -8.13282 4.05676 1.54333 -0.24705 -8.87253 -13.42957 -6.60848 26.47013 85.41429 1.52333 -0.25346 1.80952 11.26631 -16.06869 46.96923 -91.06427 4.68823 -0.84317 37.36264 -0.67515 -2.54326 -19.50831 -6.25149 -3.43908 -2.40804 43.68369 5.80756 2.6821 -30.41113 -6.55612 3.83945 2.63232
-0.00194 -0.00249 0.01374 -168.29523 -35.07504 -2.20394 44.5546 2.36691 -8.25 3.63806 1.68968 -0.24813 -10.74187 -13.49946 -7.93184 25.49042 84.86331 1.35876 -0.29778 -1.44393 11.57551 -15.48456 46.67158 -91.69838 4.93358 -0.99298 37.40661 -0.78156 -2.52282 -19.49941 -6.23924 -3.43553 -2.40246 43.26855 6.14976 2.73659 -29.72188 -6.49972 3.66939 2.53578
-0.00275 -0.00259 0.01576 -168.32899 -35.32083 -2.26294 44.92979 2.365 -8.42094 3.12482 1.78691 -0.24917 -12.64599 -13.35204 -9.67512 24.9507 86.19096 1.75923 -0.04834 -4.80532 11.91442 -14.86411 46.31443 -92.93971 5.61915 -1.13915 37.53423 -0.94548 -2.58902 -19.45755 -6.22995 -3.43188 -2.39719 42.97232 6.3456 2.89915 -29.04942 -6.45307 3.5252 2.45501
-0.00332 -0.00246 0.01811 -168.36145 -35.79302 -2.20678 45.52935 2.25677 -8.75771 2.32727 1.74465 -0.25013 -14.66576 -12.55153 -12.8263 25.66944 93.36207 3.90661 1.11449 -8.48324 12.40889 -14.29665 45.75831 -95.75674 7.51296 -1.24535 37.90774 -1.27726 -2.9048 -19.32057 -6.22784 -3.43004 -2.39346 43.00947 6.12912 3.38121 -28.40122 -6.43306 3.45041 2.4169
-0.00379 -0.00225 0.02056 -168.3971 -36.33764 -2.1134 46.19693 2.11308 -9.14477 1.43969 1.6539 -0.25105 -16.71528 -11.54258 -16.35485 26.82039 102.30114 6.58746 2.55375 -12.26414 12.92094 -13.66808 45.14891 -99.19392 9.84612 -1.35245 38.36249 -1.66491 -3.3051 -19.15139 -6.22889 -3.42776 -2.38991 43.16489 5.76767 3.9677 -27.77397 -6.42286 3.40191 2.39475
-0.00429 -0.00207 0.02295 -168.4351 -36.83652 -2.04289 46.81678 1.98963 -9.49726 0.60918 1.58845 -0.25199 -18.73989 -10.66698 -19.53994 27.74035 109.97023 8.89282 3.79477 -15.9869 13.37471 -12.96307 44.58738 -102.41472 11.98154 -1.47996 38.76909 -2.02047 -3.65938 -18.99992 -6.22911 -3.42424 -2.38579 43.26129 5.47956 4.49121 -27.1513 -6.40824 3.34244 2.36571
